.


[color=green]Movies : Animation : HD1080p :2Audio[/color]

[color=navy]Finding Nemo 2003 BluRay 1080p x264 2Audio(English,Arabic) - alrmothe[/color]



[img]http://img832.imageshack.us/img832/6818/coverfol.jpg[/img]





[img]http://img219.imageshack.us/img219/462/imdbt.png[/img]
[color=red]IMDB:[/color] 
http://www.imdb.com/title/tt0266543/
[color=green]Genre:[/color] Animation | Adventure | Comedy
[color=green]Source:[/color]Blu-ray Disc
[color=green]Language:[/color]Arabic, English
[color=green]File size:[/color]8.06 GiB
[color=green]Overall bit rate:[/color]11 MKbps
[color=green]Duration:[/color]1h 34mn 
[color=green]Encoded / Released By[/color]:alrmothe



[img]http://i.imgur.com/fXeWi.png[/img]

[color=red]Video Information[/color]
Video
Format : AVC
Format/Info : Advanced Video Codec
Format profile : High@L4.1
Runtime: 1h 40min 53sec
bit rate: 10200 Kbps
Frame rate: 23.976 fps
Display aspect ratio: 16:9
Bit depth : 8 bits
Bits/(Pixel*Frame) : 0.204
Stream size : 7 GiB (87%)
[color=green]Resolution:1920x1080[/color]


[color=navy]Audio Information:[/color]
Audio #1
Format : AC-3 EX
Bit rate mode : Constant
Bit rate : 640 Kbps
Channel(s) : 6 channels
Channel positions:Front: L C R, Side:L R,LFE
Sampling rate : 48.0 KHz
Bit depth : 16 bits
Compression mode : Lossy
Stream size:462 MiB(6%)
[color=red]Language:[/color]English

Audio #2
Format : AC-3 EX 
Bit rate mode : Constant
Bit rate : 640 Kbps
Channel(s) : 6 channels
Channel positions:Front: L C R, Side:L R,LFE
Sampling rate : 48.0 KHz
Bit depth : 16 bits
Compression mode : Lossy
Stream size:462 MiB(6%)
[color=red]Language:[/color]Arabic

[color=green]SUB:[/color]English,Arabic,Russian,Ukrainian.sub

[img]http://img198.imageshack.us/img198/2189/45445454.jpg[/img]

[color=red]Screenshots[/color]
 
http://img838.imageshack.us/img838/8817/69449801.png
 
http://img59.imageshack.us/img59/3172/47091041.png
 
http://img717.imageshack.us/img717/7082/51317929.png





[code] 
http://121.14.98.151:9090/announce 
http://tracker.ex.ua/announce 
http://tracker.torrentbay.to:6969/announce 
http://exodus.desync.com:6969/announce 
http://94.228.192.98/announce
udp://tracker.istole.it:80/announce
[/code]





You can play movie on PlayStation 3 Media Server












Trailer

